<svg xmlns="http://www.w3.org/2000/svg" width="17.27" height="19.78" viewBox="0 0 17.27 19.78">
  <path id="Union_5" data-name="Union 5" d="M12.912,17.255V.842A.912.912,0,0,1,13.881,0H16.3a.912.912,0,0,1,.968.842V17.255L15.052,19.78Zm.969-.277,1.185,1.4L16.3,16.971V.842H13.881Zm-7.425.277V.842A.912.912,0,0,1,7.425,0H9.846a.912.912,0,0,1,.968.842V17.255L8.6,19.78Zm.969-.277,1.185,1.4,1.236-1.407V.842H7.425ZM0,17.255V.842A.912.912,0,0,1,.968,0H3.39a.912.912,0,0,1,.968.842V17.255L2.14,19.78Zm.968-.277,1.185,1.4L3.39,16.971V.842H.968Z" fill="#fff"/>
</svg>
