<svg xmlns="http://www.w3.org/2000/svg" width="13.183" height="13.183" viewBox="0 0 13.183 13.183">
  <path id="Icon_metro-cross" data-name="Icon metro-cross" d="M15.633,12.519h0l-4-4,4-4h0a.413.413,0,0,0,0-.582L13.744,2.048a.413.413,0,0,0-.582,0h0l-4,4-4-4h0a.413.413,0,0,0-.582,0L2.691,3.938a.413.413,0,0,0,0,.582h0l4,4-4,4h0a.413.413,0,0,0,0,.582L4.58,14.99a.413.413,0,0,0,.582,0h0l4-4,4,4h0a.413.413,0,0,0,.582,0L15.633,13.1a.413.413,0,0,0,0-.582Z" transform="translate(-2.571 -1.928)" fill="#818181"/>
</svg>
