<svg xmlns="http://www.w3.org/2000/svg" width="20" height="20" viewBox="0 0 20 20">
  <path id="casino_FILL0_wght400_GRAD0_opsz24" d="M125-823.333a1.607,1.607,0,0,0,1.181-.486,1.607,1.607,0,0,0,.486-1.181,1.607,1.607,0,0,0-.486-1.18,1.607,1.607,0,0,0-1.181-.486,1.607,1.607,0,0,0-1.181.486,1.607,1.607,0,0,0-.486,1.18,1.607,1.607,0,0,0,.486,1.181A1.607,1.607,0,0,0,125-823.333Zm0-10a1.607,1.607,0,0,0,1.181-.486,1.607,1.607,0,0,0,.486-1.181,1.607,1.607,0,0,0-.486-1.181,1.607,1.607,0,0,0-1.181-.486,1.607,1.607,0,0,0-1.181.486,1.607,1.607,0,0,0-.486,1.181,1.607,1.607,0,0,0,.486,1.181A1.607,1.607,0,0,0,125-833.333Zm5,5a1.607,1.607,0,0,0,1.181-.486,1.607,1.607,0,0,0,.486-1.181,1.607,1.607,0,0,0-.486-1.181,1.607,1.607,0,0,0-1.181-.486,1.607,1.607,0,0,0-1.181.486,1.607,1.607,0,0,0-.486,1.181,1.607,1.607,0,0,0,.486,1.181A1.607,1.607,0,0,0,130-828.333Zm5,5a1.607,1.607,0,0,0,1.181-.486,1.607,1.607,0,0,0,.486-1.181,1.607,1.607,0,0,0-.486-1.18,1.607,1.607,0,0,0-1.181-.486,1.607,1.607,0,0,0-1.181.486,1.607,1.607,0,0,0-.486,1.18,1.607,1.607,0,0,0,.486,1.181A1.607,1.607,0,0,0,135-823.333Zm0-10a1.607,1.607,0,0,0,1.181-.486,1.607,1.607,0,0,0,.486-1.181,1.607,1.607,0,0,0-.486-1.181,1.607,1.607,0,0,0-1.181-.486,1.607,1.607,0,0,0-1.181.486,1.607,1.607,0,0,0-.486,1.181,1.607,1.607,0,0,0,.486,1.181A1.607,1.607,0,0,0,135-833.333ZM122.222-820a2.14,2.14,0,0,1-1.569-.653,2.14,2.14,0,0,1-.653-1.569v-15.556a2.14,2.14,0,0,1,.653-1.569,2.14,2.14,0,0,1,1.569-.653h15.556a2.14,2.14,0,0,1,1.569.653,2.14,2.14,0,0,1,.653,1.569v15.556a2.14,2.14,0,0,1-.653,1.569,2.14,2.14,0,0,1-1.569.653Zm0-2.222h15.556v-15.556H122.222Zm0-15.556v0Z" transform="translate(-120 840)"/>
</svg>
