<svg xmlns="http://www.w3.org/2000/svg" width="22.973" height="22.973" viewBox="0 0 22.973 22.973">
  <path id="Icon_ionic-ios-football" data-name="Icon ionic-ios-football" d="M14.861,3.375A11.486,11.486,0,1,0,26.348,14.861,11.485,11.485,0,0,0,14.861,3.375Zm7.03,4.457A9.863,9.863,0,0,1,23.139,9.35a.2.2,0,0,1,.022.193l-.8,2.281a.219.219,0,0,1-.116.127L19.075,13.4a.222.222,0,0,1-.232-.033l-3.126-2.629a.226.226,0,0,1-.077-.171V7.08a.221.221,0,0,1,.1-.182L17.86,5.457a.218.218,0,0,1,.193-.028A10.064,10.064,0,0,1,21.891,7.832ZM17.81,24.266a.2.2,0,0,1-.144.133,9.926,9.926,0,0,1-2.805.4,10.1,10.1,0,0,1-2.805-.4.229.229,0,0,1-.144-.133l-.906-2.375a.232.232,0,0,1,.011-.182l1.231-2.336a.223.223,0,0,1,.193-.116h4.832a.217.217,0,0,1,.193.116L18.7,21.709a.232.232,0,0,1,.011.182ZM14.088,7.092v3.485a.226.226,0,0,1-.077.171L10.88,13.37a.222.222,0,0,1-.232.033L7.473,11.957a.218.218,0,0,1-.116-.127l-.8-2.275a.216.216,0,0,1,.022-.193,10.012,10.012,0,0,1,5.092-3.91.218.218,0,0,1,.193.028L13.989,6.92A.183.183,0,0,1,14.088,7.092ZM5.015,15.309l1.994-1.723a.22.22,0,0,1,.237-.033l2.894,1.314a.221.221,0,0,1,.121.149l.806,3.164a.264.264,0,0,1-.017.16L9.77,20.765a.215.215,0,0,1-.2.116l-2.54-.033a.231.231,0,0,1-.177-.088,9.869,9.869,0,0,1-1.916-5.268A.242.242,0,0,1,5.015,15.309Zm14.932,5.451L18.672,18.34a.2.2,0,0,1-.017-.16l.806-3.164a.221.221,0,0,1,.121-.149l2.894-1.314a.232.232,0,0,1,.237.033l1.994,1.723a.223.223,0,0,1,.077.182,9.841,9.841,0,0,1-1.916,5.268.215.215,0,0,1-.177.088l-2.546.033A.242.242,0,0,1,19.947,20.759Z" transform="translate(-3.375 -3.375)"/>
</svg>
