<svg xmlns="http://www.w3.org/2000/svg" width="21.096" height="21.096" viewBox="0 0 21.096 21.096">
  <path id="history_FILL0_wght400_GRAD0_opsz48" d="M130.46-818.9A10.018,10.018,0,0,1,123.047-822,10.27,10.27,0,0,1,120-829.481h1.758a8.6,8.6,0,0,0,2.52,6.241,8.309,8.309,0,0,0,6.182,2.578,8.521,8.521,0,0,0,6.3-2.608,8.667,8.667,0,0,0,2.578-6.329,8.183,8.183,0,0,0-2.608-6.138,8.728,8.728,0,0,0-6.27-2.505,7.968,7.968,0,0,0-3.736.908,10.189,10.189,0,0,0-3.033,2.4h3.076v1.758h-6.124v-6.094H122.4v3.106a11.15,11.15,0,0,1,3.619-2.813A9.967,9.967,0,0,1,130.46-840a10.468,10.468,0,0,1,4.131.82,10.826,10.826,0,0,1,3.384,2.241,10.522,10.522,0,0,1,2.285,3.326,10.1,10.1,0,0,1,.835,4.1,10.309,10.309,0,0,1-.835,4.131,10.6,10.6,0,0,1-2.285,3.369,10.906,10.906,0,0,1-3.384,2.271A10.309,10.309,0,0,1,130.46-818.9Zm3.75-5.772L129.7-829.13v-6.27h1.758v5.538l4.014,3.926Z" transform="translate(-120 840)" fill="gray"/>
</svg>
