<svg xmlns="http://www.w3.org/2000/svg" width="15.238" height="20" viewBox="0 0 15.238 20">
  <path id="lock_open_FILL0_wght400_GRAD0_opsz24" d="M161.9-913.333h8.571v-1.9a2.755,2.755,0,0,0-.833-2.024,2.755,2.755,0,0,0-2.024-.833,2.755,2.755,0,0,0-2.024.833,2.755,2.755,0,0,0-.833,2.024h-1.9a4.589,4.589,0,0,1,1.393-3.369A4.589,4.589,0,0,1,167.619-920a4.589,4.589,0,0,1,3.369,1.393,4.589,4.589,0,0,1,1.393,3.369v1.9h.952a1.834,1.834,0,0,1,1.345.56,1.834,1.834,0,0,1,.56,1.345v9.524a1.834,1.834,0,0,1-.56,1.345,1.834,1.834,0,0,1-1.345.56H161.9a1.834,1.834,0,0,1-1.345-.56A1.834,1.834,0,0,1,160-901.9v-9.524a1.834,1.834,0,0,1,.56-1.345A1.834,1.834,0,0,1,161.9-913.333Zm0,11.429h11.429v-9.524H161.9Zm5.714-2.857a1.834,1.834,0,0,0,1.345-.559,1.834,1.834,0,0,0,.56-1.345,1.834,1.834,0,0,0-.56-1.345,1.834,1.834,0,0,0-1.345-.56,1.834,1.834,0,0,0-1.345.56,1.834,1.834,0,0,0-.56,1.345,1.834,1.834,0,0,0,.56,1.345A1.834,1.834,0,0,0,167.619-904.762ZM161.9-901.9v0Z" transform="translate(-160 920)"/>
</svg>
