<svg xmlns="http://www.w3.org/2000/svg" width="20.1" height="20" viewBox="0 0 20.1 20">
  <path id="settings_FILL0_wght400_GRAD0_opsz24" d="M85.3-860l-.4-3.2a3.8,3.8,0,0,1-.612-.3q-.287-.175-.562-.375l-2.975,1.25L78-867.375l2.575-1.95a2.388,2.388,0,0,1-.025-.337v-.675a2.387,2.387,0,0,1,.025-.338L78-872.625l2.75-4.75,2.975,1.25a6.815,6.815,0,0,1,.575-.375,5.037,5.037,0,0,1,.6-.3l.4-3.2h5.5l.4,3.2a3.8,3.8,0,0,1,.612.3q.288.175.563.375l2.975-1.25,2.75,4.75-2.575,1.95a2.386,2.386,0,0,1,.025.338v.675a1.227,1.227,0,0,1-.05.337l2.575,1.95-2.75,4.75-2.95-1.25a6.8,6.8,0,0,1-.575.375,5.036,5.036,0,0,1-.6.3l-.4,3.2Zm1.75-2h1.975l.35-2.65a5.605,5.605,0,0,0,1.438-.587,5.973,5.973,0,0,0,1.212-.938L94.5-865.15l.975-1.7-2.15-1.625a3.529,3.529,0,0,0,.175-.737,6.148,6.148,0,0,0,.05-.788,6.148,6.148,0,0,0-.05-.787,3.531,3.531,0,0,0-.175-.738l2.15-1.625-.975-1.7-2.475,1.05a5.552,5.552,0,0,0-1.212-.963,5.6,5.6,0,0,0-1.438-.588L89.05-878H87.075l-.35,2.65a5.6,5.6,0,0,0-1.437.588,5.975,5.975,0,0,0-1.213.938L81.6-874.85l-.975,1.7,2.15,1.6a4.071,4.071,0,0,0-.175.75,6.06,6.06,0,0,0-.05.8,5.86,5.86,0,0,0,.05.775,4.068,4.068,0,0,0,.175.75l-2.15,1.625.975,1.7,2.475-1.05a5.555,5.555,0,0,0,1.213.963,5.605,5.605,0,0,0,1.437.587Zm1.05-4.5a3.372,3.372,0,0,0,2.475-1.025A3.372,3.372,0,0,0,91.6-870a3.373,3.373,0,0,0-1.025-2.475A3.372,3.372,0,0,0,88.1-873.5a3.361,3.361,0,0,0-2.488,1.025A3.394,3.394,0,0,0,84.6-870a3.393,3.393,0,0,0,1.012,2.475A3.36,3.36,0,0,0,88.1-866.5ZM88.05-870Z" transform="translate(-78 880)"/>
</svg>
