<svg xmlns="http://www.w3.org/2000/svg" width="23.9" height="26.194" viewBox="0 0 23.9 26.194">
  <path id="sports_tennis_FILL0_wght400_GRAD0_opsz48" d="M81.285-894.161,80-895.445l5.2-5.2a5.539,5.539,0,0,0,1.4-2.462,15.939,15.939,0,0,0,.418-4.138,8.012,8.012,0,0,1,.747-3.346,10.9,10.9,0,0,1,2.27-3.167,9.637,9.637,0,0,1,5.768-2.987,5.956,5.956,0,0,1,5.166,1.673,6.007,6.007,0,0,1,1.673,5.2,9.654,9.654,0,0,1-2.987,5.8,10.41,10.41,0,0,1-3.167,2.241,8.293,8.293,0,0,1-3.346.717,17.505,17.505,0,0,0-4.168.388,5.322,5.322,0,0,0-2.495,1.374Zm8.664-9.918a4.386,4.386,0,0,0,3.973,1.09,7.951,7.951,0,0,0,4.511-2.375,7.979,7.979,0,0,0,2.388-4.46,4.294,4.294,0,0,0-1.074-3.935,4.363,4.363,0,0,0-3.958-1.091,7.943,7.943,0,0,0-4.5,2.375,8.1,8.1,0,0,0-2.4,4.469A4.249,4.249,0,0,0,89.948-904.079Zm9.65,13.474a4.149,4.149,0,0,1-3.047-1.255,4.149,4.149,0,0,1-1.255-3.047,4.149,4.149,0,0,1,1.255-3.047A4.149,4.149,0,0,1,99.6-899.21a4.149,4.149,0,0,1,3.047,1.255,4.149,4.149,0,0,1,1.255,3.047,4.149,4.149,0,0,1-1.255,3.047A4.149,4.149,0,0,1,99.6-890.606Zm0-1.793a2.432,2.432,0,0,0,1.792-.717,2.432,2.432,0,0,0,.717-1.793,2.432,2.432,0,0,0-.717-1.792,2.432,2.432,0,0,0-1.792-.717,2.432,2.432,0,0,0-1.792.717,2.432,2.432,0,0,0-.717,1.792,2.432,2.432,0,0,0,.717,1.793A2.432,2.432,0,0,0,99.6-892.4ZM99.6-894.908Z" transform="translate(-80 916.8)"/>
</svg>
